<svg width="14" height="14" viewBox="0 0 14 14" fill="none" xmlns="http://www.w3.org/2000/svg">
<g clip-path="url(#clip0_7_69)">
<path d="M0.100296 2.1631C-0.126037 1.5436 0.0442962 0.857604 0.53488 0.41602C1.0243 -0.0238129 1.72138 -0.12298 2.31288 0.164604L12.8654 5.09027C13.4312 5.3551 13.836 5.83869 14 6.41619H2.3613L0.133546 2.23719C0.121296 2.21327 0.110213 2.18819 0.100296 2.1631ZM2.36946 7.58344L0.180213 11.7689C0.167963 11.7922 0.157463 11.8155 0.148713 11.84C-0.0770372 12.4601 0.0950461 13.1449 0.585629 13.5859C0.889546 13.8584 1.27338 13.9989 1.65955 13.9989C1.89813 13.9989 2.1373 13.9453 2.36013 13.8362L12.8665 8.91402C13.4341 8.64802 13.8384 8.16269 14.0011 7.58402L2.36946 7.58344Z" fill="#F1F1F1" style="fill:#F1F1F1;fill:color(display-p3 0.9451 0.9451 0.9451);fill-opacity:1;"/>
</g>
<defs>
<clipPath id="clip0_7_69">
<rect width="14" height="14" fill="white" style="fill:white;fill-opacity:1;"/>
</clipPath>
</defs>
</svg>
