<svg width="14" height="13" viewBox="0 0 14 13" fill="none" xmlns="http://www.w3.org/2000/svg">
<path d="M13.2707 11.6162L10.8382 9.09898C12.6583 6.58306 12.162 3.01727 9.72974 1.13459C7.29748 -0.748098 3.85026 -0.234752 2.03018 2.28117C0.210097 4.79709 0.706373 8.36288 3.13863 10.2456C5.09243 11.7579 7.77592 11.7579 9.72974 10.2456L12.1632 12.7628C12.469 13.0791 12.9648 13.0791 13.2706 12.7628C13.5764 12.4464 13.5764 11.9336 13.2706 11.6173L13.2707 11.6162ZM6.45447 9.75973C4.29279 9.75973 2.54042 7.94709 2.54042 5.71105C2.54042 3.47502 4.29279 1.66238 6.45447 1.66238C8.61614 1.66238 10.3685 3.47502 10.3685 5.71105C10.3662 7.94607 8.61519 9.75735 6.45447 9.75973Z" fill="#999999" style="fill:#999999;fill:color(display-p3 0.6020 0.6020 0.6020);fill-opacity:1;"/>
</svg>
